<?xml version="1.0" encoding="utf-8"?>
<!-- Generator: Adobe Illustrator 21.0.0, SVG Export Plug-In . SVG Version: 6.00 Build 0)  -->
<svg version="1.1" id="图层_1" xmlns="http://www.w3.org/2000/svg" xmlns:xlink="http://www.w3.org/1999/xlink" x="0px" y="0px"
     viewBox="0 0 1000 1000" style="enable-background:new 0 0 1000 1000;" xml:space="preserve">
<style type="text/css">
    .st0{fill:rgb(253, 62, 62);}
    .st1{fill:#FFFFFF;}
</style>
<g>
    <circle class="st0" cx="500" cy="499.7" r="493.9"/>
    <g>
        <g transform="translate(0.000000,511.000000) scale(0.100000,-0.100000)">
            <path class="st1" d="M8067.7,2485.9c-71.5-21.5-112.6-54.7-158.2-136.7c-22.8-41-264.7-369.2-535.4-728.7l-492.8-654.4l-7.6,588
                c-7.6,556.8-9.1,593.9-41.1,668.1c-36.5,89.9-82.1,146.5-156.7,197.3c-51.7,35.2-143,37.1-2418.4,43
                c-1741.6,4-2386.5,0-2447.3-15.6c-92.7-27.3-184-119.1-231.2-236.4c-27.4-72.3-28.9-138.7-28.9-2098.1
                c0-2250.5-7.6-2072.7,103.5-2223.2c104.9-138.7-59.3-130.9,2564.4-130.9c1931.7,2,2369.8,5.8,2416.9,27.3
                c82.1,39.1,158.2,119.1,197.7,212.9c31.9,78.1,33.5,107.4,41.1,672l7.6,588l492.8-654.4c270.8-359.4,512.6-687.6,535.4-728.7
                c100.4-175.9,272.3-189.5,450.2-33.3l50.2,43V112.3v2227l-50.2,43C8260.9,2468.3,8146.8,2509.3,8067.7,2485.9z M2833.8,1514.9
                c165.8-105.5,249.5-343.8,199.3-562.6C2954,596.7,2610.3,477.6,2411,735.5c-136.9,173.9-152.1,437.6-36.5,638.8
                c39.5,68.4,141.5,152.4,214.5,175.9C2652.8,1569.7,2776,1554,2833.8,1514.9z"/>
        </g>
    </g>
</g>
</svg>
