<?xml version="1.0" encoding="utf-8"?>
<!-- Generator: Adobe Illustrator 21.0.0, SVG Export Plug-In . SVG Version: 6.00 Build 0)  -->
<svg version="1.1" id="图层_1" xmlns="http://www.w3.org/2000/svg" xmlns:xlink="http://www.w3.org/1999/xlink" x="0px" y="0px"
     viewBox="0 0 1000 1000" style="enable-background:new 0 0 1000 1000;" xml:space="preserve">
<style type="text/css">
    .st0{fill:rgb(253, 62, 62);}
    .st1{fill:#FFFFFF;}
</style>
<g>
    <circle class="st0" cx="498.9" cy="498.9" r="493.9"/>
    <g transform="translate(0.000000,511.000000) scale(0.100000,-0.100000)">
        <path class="st1" d="M6068.3,3182.7c-995.6-141.1-1842.3-262.3-1882.2-268.5c-148.8-23-300.7-168.7-335.9-322.1
            c-16.9-75.1-12.3-125.8,35.2-469.4c46-339,49.1-383.5,29.2-389.7c-13.8-4.6-65.9-15.3-116.6-24.5
            c-247-49.1-535.4-156.5-647.4-239.3c-93.6-70.6-401.9-538.4-713.3-1079.9C2211.8-1.8,1697.9-962.1,1697.9-992.8
            c-1.5-13.8,288.4-380.5,642.7-813.1c354.3-431.1,652-794.6,659.6-805.4c29.2-35.3,382,73.6,644.3,199.4
            c550.7,266.9,931.1,736.3,1339.2,1658.2c181,406.5,200.9,444.9,308.4,579.9c105.8,133.5,257.7,256.2,461.8,374.3
            c260.8,151.9,382,237.8,466.3,328.3c156.5,167.2,225.5,334.4,225.5,541.5c0,105.8-6.1,135-47.6,219.3
            c-53.7,108.9-115,159.5-230.1,188.7c-222.4,59.8-609-87.4-943.4-359c-41.4-33.7-205.6-187.1-362-342.1l-285.4-279.2l-205.6-98.1
            c-193.3-93.6-526.2-224-777.7-303.7c-124.3-39.9-164.2-30.7-164.2,33.7c0,32.2,15.3,41.4,122.7,79.8
            c256.2,87.5,556.9,202.5,679.6,257.7c122.7,56.7,127.3,61.4,119.7,101.3c-21.5,104.3-147.2,1053.9-142.7,1067.7
            c7.7,23,3986.9,581.4,3999.1,563c18.4-30.7,185.6-1284,176.4-1322.3c-6.2-21.5-30.7-58.3-55.2-82.8
            c-44.5-42.9-55.2-44.5-994-176.4l-948.1-134.8l-142.7-107.4c-78.2-59.8-250-173.4-382-250C5658.7,4.3,5602-37.1,5474.7-164.4
            c-141.2-139.6-153.4-159.5-247-352.8c-128.9-268.5-125.8-254.7-67.5-265.4c135-24.5,374.3,65.9,624.3,237.8
            c167.2,113.5,234.7,187.1,296.1,317.6c41.4,87.5,47.6,121.2,53.7,266.9c4.6,90.5,13.8,165.7,21.5,165.7
            c61.4,0,2124.6,297.6,2189,316c156.5,44.5,293,227,293,392.7c0,23-69.1,529.2-151.9,1122.9c-108.9,770-161.1,1101.4-182.6,1149
            c-59.8,136.5-194.8,231.6-348.2,247C7903,3437.4,7304.7,3357.6,6068.3,3182.7z M7985.8,3175c75.1-32.2,105.8-95.1,128.8-256.2
            c9.2-76.7,15.3-142.7,13.8-144.2c-4.6-3-3986.9-561.4-4002.2-559.9c-4.6,0-18.4,72.1-29.2,159.5
            c-18.4,154.9-18.4,161.1,13.8,213.3c18.4,29.2,52.2,61.4,75.1,70.6c29.2,12.3,3580.4,523.1,3727.6,536.9
            C7924.5,3195,7956.7,3187.4,7985.8,3175z"/>
        <path class="st1" d="M5807.6-678.4c-102.8-70.6-288.4-164.2-391.2-197.9c-58.3-19.9-128.9-27.6-224-27.6l-141.1,1.5l-62.9-139.6
            c-35.2-78.3-62.9-145.7-62.9-151.9c0-21.5,280.7-12.3,382,12.3c147.2,35.2,437.2,181,486.3,243.9c55.2,72.1,135,316,102.8,312.9
            C5890.4-624.7,5850.5-649.2,5807.6-678.4z"/>
        <path class="st1" d="M1312.9-963.7c-90.5-50.6-497-401.9-513.9-441.8c-24.5-58.3-10.7-147.2,27.6-190.2
            c15.4-18.4,328.3-397.3,693.4-845.2c365.1-446.4,688.7-839.1,717.9-869.8c65.9-70.6,130.4-93.6,197.9-75.1
            c56.7,16.9,489.3,366.6,529.2,428c32.2,47.6,35.2,135,7.7,181C2923.6-2691,1500.1-979,1466.3-963.7
            C1417.2-940.7,1352.8-940.7,1312.9-963.7z"/>
        <path class="st1" d="M5631.1-1190.7c-46-24.5-139.6-64.4-207.1-87.5c-110.5-36.9-145.7-41.4-349.8-42.9l-227-3l-61.4-104.3
            c-33.7-56.7-58.3-105.8-55.2-109c18.4-18.4,259.2-39.9,386.5-32.2c236.3,12.3,423.4,95.1,533.8,234.7
            c33.7,44.5,93.6,190.2,75.1,190.2C5720.1-1146.2,5677.1-1166.2,5631.1-1190.7z"/>
    </g>
</g>
</svg>
