<svg xmlns="http://www.w3.org/2000/svg" viewBox="0 0 60 60"><title>mark-fire-leakage</title><g id="mark"><path id="æ¼ç”µ" d="M13.62,45.55H46.26L29.94,17.28ZM34.74,28.21l-3.41,5.24a.32.32,0,0,0,.27.49h1.86a.32.32,0,0,1,.23.54l-7.28,7.81a.32.32,0,0,1-.54-.3l1.67-6.06a.32.32,0,0,0-.31-.4H25.15a.33.33,0,0,1-.3-.45L28,27.91a.32.32,0,0,1,.29-.19h6.14A.32.32,0,0,1,34.74,28.21ZM46.34,2.37H13.55A11.67,11.67,0,0,0,1.88,14V46.83A11.67,11.67,0,0,0,13.55,58.51H46.34A11.68,11.68,0,0,0,58,46.83V14A11.68,11.68,0,0,0,46.34,2.37Zm6.47,47a3.68,3.68,0,0,1-3.17,1.83H10.25a3.7,3.7,0,0,1-3.18-1.84,3.65,3.65,0,0,1,0-3.66L26.77,11.55a3.67,3.67,0,0,1,6.35,0L52.81,45.66A3.7,3.7,0,0,1,52.81,49.33Z"/></g></svg>