<svg xmlns="http://www.w3.org/2000/svg" viewBox="0 0 60 60"><title>mark-fire-sensor-smoke</title><g id="mark"><path id="烟感" d="M44.21,43.51h2.7l.16-6.28H44.21Zm-37.43,0H41.32V37.23H6.78ZM53.15,45V43.51h0ZM50,37.23l-.16,6.28h3.34V37.23ZM46.9,1.44H13A12.05,12.05,0,0,0,1,13.49V47.35a12.06,12.06,0,0,0,12,12H46.9A12.06,12.06,0,0,0,59,47.35V13.49A12.05,12.05,0,0,0,46.9,1.44ZM47,14.72a3.75,3.75,0,0,1,.81,3.79c-.18.69-.66,3,.59,3.84a4.93,4.93,0,0,0,2.39,0c1.47-.2,3.15-.42,4.31.69A3.72,3.72,0,0,1,56,26.23c-.24,3.11-.49,4.49-2,5.64l-1.74-2.32c.42-.32.64-.48.87-3.54a1.68,1.68,0,0,0-.06-.87,6.73,6.73,0,0,0-1.92.1c-1.43.19-3.05.4-4.35-.46-2-1.28-2.62-3.82-1.82-7,.09-.36.15-.83,0-1-.66-.66-3.22-.48-4.73-.1l-.7-2.81C40.4,13.63,44.92,12.63,47,14.72Zm-15.81-.3,2.38,1.67c-.73,1-3,4.53-1.23,6.12,2,1.88,5.65,2.2,8.55,2.46a7.86,7.86,0,0,1,7,8.07L45,32.55a5,5,0,0,0-4.26-5c-3.4-.3-7.55-.68-10.32-3.21C28,22.17,28.3,18.55,31.19,14.42ZM56.05,43.51a2.9,2.9,0,0,1-2.9,2.9H6.78a2.9,2.9,0,0,1-2.9-2.9V37.23a2.9,2.9,0,0,1,2.9-2.9H53.15a2.9,2.9,0,0,1,2.9,2.9Z"/></g></svg>