<svg xmlns="http://www.w3.org/2000/svg" viewBox="0 0 60 60"><title>mark-fire-sensor-heat</title><g id="mark"><path id="温感" d="M35.91,36.13l-.35-.23V12.49a3.7,3.7,0,0,0-3.7-3.7h-.24a3.7,3.7,0,0,0-3.7,3.7V35.9l-.35.23a7.7,7.7,0,1,0,8.34,0ZM31.73,47.34a4.46,4.46,0,0,1-1.65-8.61V21.31a1.66,1.66,0,0,1,3.31,0V38.73a4.46,4.46,0,0,1-1.66,8.61ZM46.34,1.07H13.07A11.85,11.85,0,0,0,1.23,12.92V46.18A11.85,11.85,0,0,0,13.07,58H46.34A11.85,11.85,0,0,0,58.18,46.18V12.92A11.85,11.85,0,0,0,46.34,1.07ZM19,12.51h4.31a.51.51,0,0,1,.51.51.52.52,0,0,1-.51.51H19a.51.51,0,0,1-.51-.51A.51.51,0,0,1,19,12.51Zm4.82,4a.52.52,0,0,1-.51.51H20.36a.51.51,0,0,1,0-1h2.91A.51.51,0,0,1,23.78,16.46ZM19,19.39h4.31a.51.51,0,0,1,.51.51.51.51,0,0,1-.51.51H19a.51.51,0,0,1-.51-.51A.51.51,0,0,1,19,19.39Zm4.82,4a.52.52,0,0,1-.51.51H20.36a.51.51,0,0,1,0-1h2.91A.51.51,0,0,1,23.78,23.35Zm-5.33,3.44a.51.51,0,0,1,.51-.51h4.31a.52.52,0,0,1,0,1H19A.51.51,0,0,1,18.45,26.79ZM31.73,51.84a9.23,9.23,0,0,1-5.35-16.75V12.49a5.24,5.24,0,0,1,5.24-5.23h.23a5.23,5.23,0,0,1,5.23,5.23v22.6a9.22,9.22,0,0,1-5.35,16.75Z"/></g></svg>