<svg xmlns="http://www.w3.org/2000/svg" viewBox="0 0 60 60"><title>mark-alert</title><g id="mark"><g id="报警-通用"><path d="M57.08,14.69A1.31,1.31,0,0,0,55.9,14c-2.23,0-7.35-3.35-12.31-6.58C38,3.79,32.73.34,29.87.34c-3,0-9.19,3.94-15.18,7.75C10.12,11,5.39,14,3.85,14a1.1,1.1,0,0,0-1,.61,2,2,0,0,0-.2,1c0,5.72,18.09,44.07,27.23,44.07C38.49,59.67,57.35,23,57.35,16A2.58,2.58,0,0,0,57.08,14.69Zm-29.7-1.07A5.1,5.1,0,0,1,30,13.16a5,5,0,0,1,2.57.46,2.89,2.89,0,0,1,.92,2.53c0,.67-.15,2.28-.46,4.82L31.29,35.45H28.71L27,21c-.3-2.6-.46-4.21-.46-4.82A3.09,3.09,0,0,1,27.38,13.62Zm5.52,32a4.13,4.13,0,1,1,1.19-2.9A4,4,0,0,1,32.9,45.66Z"/></g></g></svg>