<svg xmlns="http://www.w3.org/2000/svg" viewBox="0 0 60 60"><title>mark-station-cp</title><g id="mark"><g id="定位基站"><path d="M34.25,29.42a3.21,3.21,0,0,0-3-1.78h-.49a3.22,3.22,0,0,0-3,1.78l-9.2,25.43c-.47,1.29.58,2.63,2.32,3s3.55-.43,4-1.72L31,39.31l6.07,16.8c.47,1.29,2.28,2.07,4,1.72s2.79-1.69,2.32-3ZM16.49,21.34l5.3,5.18c.34-.29,8.54-6.92,17.65.09l5.08-5.36a22.44,22.44,0,0,0-28,.09Zm0,0"/><path d="M2,13.25l5.31,5.17a42.21,42.21,0,0,1,14.39-7.09c11.39-3.1,22.19-.7,32.11,7.16L59,13.2C30.15-9.66,2.3,13,2,13.25Zm0,0"/></g></g></svg>