<svg xmlns="http://www.w3.org/2000/svg" viewBox="0 0 60 60"><title>mark-fire-manual</title><g id="mark"><path id="手报" d="M46.34,2.09H13.69A11.62,11.62,0,0,0,2.07,13.71V46.36A11.62,11.62,0,0,0,13.69,58H46.34A11.63,11.63,0,0,0,58,46.36V13.71A11.63,11.63,0,0,0,46.34,2.09Zm-.61,36.68h0c-.29,7.11-5.51,12.77-11.89,12.77a11.45,11.45,0,0,1-9.27-5L15.17,35.91a3.71,3.71,0,0,1,0-4.76,2.75,2.75,0,0,1,4.21,0L22.77,35V11.78a3.08,3.08,0,0,1,2.86-3.25,3.08,3.08,0,0,1,2.87,3.25V23a3.08,3.08,0,0,1,2.87-3.25A3.08,3.08,0,0,1,34.24,23v2.31a3.08,3.08,0,0,1,2.86-3.25A3.08,3.08,0,0,1,40,25.34v3.79a3.08,3.08,0,0,1,2.87-3.25,3.12,3.12,0,0,1,2.89,3.24Z"/></g></svg>