<svg xmlns="http://www.w3.org/2000/svg" viewBox="0 0 57.96 57.96"><title>mark-fire-water-monitor</title><g id="mark"><path id="水炮" d="M28.92,23.07a4.87,4.87,0,1,0,4.86,4.85A4.86,4.86,0,0,0,28.92,23.07Zm1.22,7.05c-.43.18-.83.63-1.24.62s-.85-.41-1.26-.65-1-.43-1.18-.79-.05-.92-.05-1.39a2,2,0,0,0,0-.35,1.26,1.26,0,0,1,.9-1.59c.48-.2.91-.52,1.37-.76a.61.61,0,0,1,.46,0c.69.37,1.36.77,2,1.18a.55.55,0,0,1,.23.39c0,.38,0,.78,0,1.17C31.75,29.12,31.13,29.71,30.14,30.12ZM45.22,1.17H12.59A11.62,11.62,0,0,0,1,12.79V45.42A11.62,11.62,0,0,0,12.59,57H45.22A11.62,11.62,0,0,0,56.84,45.42V12.79A11.62,11.62,0,0,0,45.22,1.17Zm-27,17a.38.38,0,0,1,.29-.23c.6-.05.8-.37.94-.95a9.32,9.32,0,0,1,6.67-7c.26-.08.37-.18.34-.46a4.63,4.63,0,0,1,0-.54h1.35V7.52h-1c0-.35,0-.66,0-1,0-.07.12-.19.18-.19h4V7.52H30V8.93h1.33v.81c.91.41,1.79.73,2.59,1.19a9.14,9.14,0,0,1,4.49,6.21c.08.36.18.59.6.67.69.14.68.18.55,1H18.21A3.34,3.34,0,0,1,18.23,18.12Zm-1.05,12c-.28-.49-.56-.95-.81-1.44a.44.44,0,0,0-.54-.28c-.88.12-.86.08-1.3-.67a1,1,0,0,1,.06-1.32.85.85,0,0,0,.07-1.19c-.21-.33-.35-.71-.56-1.12l1.25-.61,3.11,5.94Zm20.94,21.7a2.57,2.57,0,0,1-.48,0H28.91c-3,0-5.95,0-8.92,0-.4,0-.49-.11-.52-.5a.91.91,0,0,1,.63-1.06.53.53,0,0,0,.37-.6q0-.75,0-1.5a.5.5,0,0,0-.3-.53c-.16-.09-.4-.23-.42-.37a4.69,4.69,0,0,1,0-1.06s.13-.1.21-.12a3.09,3.09,0,0,1,.43,0H37.56c.55,0,.52,0,.56.56a.92.92,0,0,1-.56,1.07.5.5,0,0,0-.19.34c0,.59,0,1.18,0,1.77,0,.12.13.25.21.37s.11.06.17.1a1,1,0,0,1,.56,1.34A.3.3,0,0,1,38.12,51.84ZM38.64,29a1.44,1.44,0,0,1-.21-.38,11.3,11.3,0,0,1-.11-1.17c0-.23-.09-.33-.33-.32s-.62,0-1,0c0,.18,0,.31,0,.46q0,7.7,0,15.41a1.73,1.73,0,0,0,.18.7c.2.39.42.78.67,1.25H20c.23-.44.47-.83.65-1.24a1.87,1.87,0,0,0,.18-.74q0-7.68,0-15.37v-.45H19.51l-.12,1.25a1,1,0,0,1,0,.31,1.26,1.26,0,0,1-.19.28c-.09-.07-.2-.11-.26-.2-.21-.36-.4-.73-.6-1.1-.64-1.19-1.29-2.37-1.92-3.56a2.21,2.21,0,0,1-.21-.66c-.05-.28.12-.41.37-.34a2.44,2.44,0,0,1,.7.25.5.5,0,0,0,.57,0q1.11-.64,2.22-1.26a.32.32,0,0,0,.16-.48,1.62,1.62,0,0,0-1-.9c-.44-.18-.44-.17-.39-.71H39c.09.34.08.59-.36.72a1.55,1.55,0,0,0-1,.8.39.39,0,0,0,.19.61c.74.39,1.46.81,2.19,1.23a.47.47,0,0,0,.53,0,3.25,3.25,0,0,1,.74-.26c.24-.06.39.07.35.33a1.74,1.74,0,0,1-.17.59q-1.24,2.34-2.53,4.66A1.14,1.14,0,0,1,38.64,29Zm4.41-2.82A1.34,1.34,0,0,1,43.16,28c-.23.35-.42.57-.85.43-.09,0-.21,0-.31,0-.3-.09-.44.06-.57.31-.24.46-.51.91-.79,1.4l-1.28-.68,1.43-2.74c.5-.95,1-1.89,1.49-2.85.15-.3.3-.34.57-.18s.54.29.86.45c-.24.48-.45.95-.69,1.39A.48.48,0,0,0,43.05,26.16Z"/></g></svg>