<svg xmlns="http://www.w3.org/2000/svg" viewBox="0 0 60 60"><title>mark-e-patrol</title><g id="mark"><g id="巡更点"><path d="M30.12,1.1A28.35,28.35,0,1,0,58.47,29.45,28.35,28.35,0,0,0,30.12,1.1Zm0,53.67A25.33,25.33,0,1,1,55.45,29.45,25.32,25.32,0,0,1,30.12,54.77Zm0,0"/><path d="M12.05,29.45A16.79,16.79,0,0,1,20.62,15l-1.08-1.56a18.69,18.69,0,0,0-9.38,16,18.69,18.69,0,0,0,9.41,16l1.08-1.56a16.8,16.8,0,0,1-8.6-14.48Zm28.66-16L39.62,15A16.78,16.78,0,0,1,48.2,29.45a16.8,16.8,0,0,1-8.6,14.48l1.08,1.56a18.69,18.69,0,0,0,9.41-16,18.69,18.69,0,0,0-9.38-16Zm0,0"/><path d="M45.36,29.45A14,14,0,0,0,38,17.31l-1.09,1.56a12.12,12.12,0,0,1,6.56,10.58A12.13,12.13,0,0,1,36.88,40L38,41.6a14,14,0,0,0,7.39-12.15Zm-28.58,0a12.12,12.12,0,0,1,6.56-10.58l-1.09-1.56a14,14,0,0,0-7.36,12.14A14,14,0,0,0,22.28,41.6L23.37,40a12.11,12.11,0,0,1-6.59-10.59Zm0,0"/><path d="M21.5,29.45a7.49,7.49,0,0,1,4.56-6.67L25,21.21a9.34,9.34,0,0,0-5.36,8.24A9.36,9.36,0,0,0,25,37.7l1.09-1.57a7.49,7.49,0,0,1-4.59-6.68Zm19.14,0a9.34,9.34,0,0,0-5.36-8.24l-1.09,1.57a7.49,7.49,0,0,1,4.56,6.67,7.5,7.5,0,0,1-4.59,6.68l1.09,1.57a9.36,9.36,0,0,0,5.39-8.25Zm-13.18,0a2.67,2.67,0,1,0,2.66-2.66,2.65,2.65,0,0,0-2.66,2.66Zm0,0"/></g></g></svg>