<svg xmlns="http://www.w3.org/2000/svg" viewBox="0 0 60 60"><title>mark-fire-cable-temp</title><g id="mark"><g id="感温电缆"><path d="M45.92,3H13.83A11.42,11.42,0,0,0,2.41,14.39V46.48A11.42,11.42,0,0,0,13.83,57.91H45.92A11.42,11.42,0,0,0,57.34,46.48V14.39A11.42,11.42,0,0,0,45.92,3Zm-16,44.54a17.08,17.08,0,1,1,0-34.15,2.3,2.3,0,0,1,2,1.29h8.4a.34.34,0,0,1,0,.68H32a.29.29,0,0,0-.07.15v.75h8.33a.34.34,0,0,1,.32.34.35.35,0,0,1-.32.34H31.9v.71a.46.46,0,0,0,.07.19h8.26a.34.34,0,0,1,0,.67h-8.4a2.26,2.26,0,0,1-2,1.27A10.67,10.67,0,1,0,40.55,30.37a2.18,2.18,0,0,1,2.13-2.19h2.14A2.18,2.18,0,0,1,47,30.37,17.12,17.12,0,0,1,29.87,47.51Z"/></g></g></svg>