<svg xmlns="http://www.w3.org/2000/svg" viewBox="0 0 60 60"><title>mark-perimeter</title><g id="mark"><g id="周界"><path d="M55.37,8.81V56.05a3.41,3.41,0,0,1-3.12,3.63,3.41,3.41,0,0,1-3.12-3.63V41.51H21.07A3.4,3.4,0,0,1,18,37.88a3.41,3.41,0,0,1,3.12-3.64H49.13V8.81A3.41,3.41,0,0,1,46,5.17a3.41,3.41,0,0,1,3.12-3.63h6.24a3.41,3.41,0,0,1,3.12,3.63,3.41,3.41,0,0,1-3.12,3.64Zm-49.9,0A3.41,3.41,0,0,1,2.35,5.17,3.41,3.41,0,0,1,5.47,1.54h6.24a3.41,3.41,0,0,1,3.12,3.63,3.41,3.41,0,0,1-3.12,3.64v10.9H39.78a3.4,3.4,0,0,1,3.12,3.63A3.41,3.41,0,0,1,39.78,27H11.71v21.8H39.78a3.68,3.68,0,0,1,0,7.27H11.71a3.41,3.41,0,0,1-3.12,3.63,3.41,3.41,0,0,1-3.12-3.63Zm0,0"/></g></g></svg>