<svg xmlns="http://www.w3.org/2000/svg" viewBox="0 0 60 60"><title>mark-alert-fire</title><g id="mark"><g id="火警"><path d="M28.5,25.49a2.63,2.63,0,0,0-2.7-.59c1.69,1.94,0,5.06,0,5.06a3.11,3.11,0,0,0-2.95-1.56c1.1,1.73.42,6.46.42,6.46a3.2,3.2,0,0,0-3.37-2.28c1.69,1.2,1.94,1.9,1.94,6.54s5,5.53,5,5.53H24v.88H36.6v-1H35.17C39,42.83,40.1,40,40.1,37.43a6.86,6.86,0,0,0-1-3.88c0,.8-1.05,1.22-1.05,1.22.84-5.52-1.69-7.38-1.69-7.38a1.34,1.34,0,0,1-.8,1c-.84-4.3-2.83-5.57-2.83-5.57,0,.85-.55,1-.55,1-1.89-2,.17-4.22.17-4.22a5.79,5.79,0,0,0-3.88,5.86Zm2.26,2.7c0,.47.61.59.61,1.18a.65.65,0,0,1-.61.64c-1.15-.55,0-1.82,0-1.82Zm.18,9.73c.13-.73-.18-3.14.43-3.45A3.55,3.55,0,0,1,32.52,38a1.62,1.62,0,0,0,1.24-1.55s.72.95-.19,2.91c0,0,.94,0,1-.54,0,0,.09,5.22-4.18,5.22a4.34,4.34,0,0,1-4.62-4.49,1.56,1.56,0,0,0,1.11.35A2.91,2.91,0,0,1,26.51,38s1.68,1.9,2.91,1.58c0,0-.12-2.26-1-3l0,0,0,0c.26.22,2.36,2,2.48,1.31Zm0,0"/><path d="M56.22,48l-25-43.26a1.45,1.45,0,0,0-2.5,0L3.78,48A1.43,1.43,0,0,0,5,50.18H55A1.43,1.43,0,0,0,56.22,48ZM49,46.39H11a1.1,1.1,0,0,1-.95-1.65l19-32.91a1.09,1.09,0,0,1,1.9,0L50,44.74A1.1,1.1,0,0,1,49,46.39Z"/></g></g></svg>